<?xml version="1.0" encoding="UTF-8"?>
<svg width="800" height="200" viewBox="0 0 800 200" version="1.1" xmlns="http://www.w3.org/2000/svg">
  <g fill="#1A56DB">
    <path d="M100,0 C155.228,0 200,44.772 200,100 C200,155.228 155.228,200 100,200 C44.772,200 0,155.228 0,100 C0,44.772 44.772,0 100,0 Z M100,40 C66.863,40 40,66.863 40,100 C40,133.137 66.863,160 100,160 C133.137,160 160,133.137 160,100 C160,66.863 133.137,40 100,40 Z"/>
    <path d="M300,50 L300,150 L260,150 L260,50 L300,50 Z M400,50 L400,150 L360,150 L360,110 L340,110 L340,150 L300,150 L300,50 L340,50 L340,90 L360,90 L360,50 L400,50 Z M500,50 L500,150 L460,150 L460,110 L440,110 L440,150 L400,150 L400,50 L440,50 L440,90 L460,90 L460,50 L500,50 Z M600,50 L600,150 L560,150 L560,50 L600,50 Z M700,50 L700,150 L660,150 L660,110 L640,110 L640,150 L600,150 L600,50 L640,50 L640,90 L660,90 L660,50 L700,50 Z M800,50 L800,150 L760,150 L760,50 L800,50 Z"/>
  </g>
</svg> 